<svg width="181" height="43" viewBox="0 0 181 43" fill="none" xmlns="http://www.w3.org/2000/svg">
<path d="M47.314 37.7025H43.3887V14.7988H47.3695V17.4465C47.5053 17.0762 47.82 16.6503 48.3138 16.1689C48.8199 15.6875 49.4864 15.2678 50.3135 14.9098C51.1405 14.5395 52.0848 14.3544 53.1463 14.3544C54.5782 14.3544 55.8311 14.7 56.905 15.3912C57.9912 16.0702 58.8368 17.0144 59.4416 18.2241C60.0588 19.4338 60.3674 20.8286 60.3674 22.4086C60.3674 23.9886 60.0526 25.3835 59.4231 26.5931C58.7936 27.8028 57.9234 28.7471 56.8124 29.426C55.7138 30.1049 54.4486 30.4444 53.0167 30.4444C51.8935 30.4444 50.9183 30.2407 50.0913 29.8334C49.2643 29.4137 48.6162 28.9446 48.1472 28.4262C47.6781 27.9077 47.4004 27.4942 47.314 27.1856V37.7025ZM56.4606 22.4086C56.4606 21.4335 56.257 20.5818 55.8496 19.8535C55.4423 19.1252 54.8991 18.5636 54.2202 18.1686C53.5537 17.7612 52.8192 17.5576 52.0169 17.5576C51.1528 17.5576 50.369 17.7674 49.6654 18.1871C48.9618 18.5944 48.4002 19.1622 47.9805 19.8905C47.5732 20.6065 47.3695 21.4458 47.3695 22.4086C47.3695 23.3714 47.5732 24.217 47.9805 24.9453C48.4002 25.6612 48.9618 26.2228 49.6654 26.6302C50.369 27.0375 51.1528 27.2412 52.0169 27.2412C52.8192 27.2412 53.5537 27.0437 54.2202 26.6487C54.8991 26.2537 55.4423 25.6921 55.8496 24.9638C56.257 24.2355 56.4606 23.3838 56.4606 22.4086ZM67.344 30H63.4002V14.7988H67.344V17.3354H67.2514C67.3378 17.0268 67.5723 16.6441 67.955 16.1874C68.35 15.7184 68.8931 15.2987 69.5844 14.9284C70.2756 14.5457 71.1088 14.3544 72.084 14.3544C72.7876 14.3544 73.4171 14.4531 73.9725 14.6506C74.528 14.8481 74.923 15.0456 75.1575 15.2431L73.5652 18.5019C73.4047 18.3044 73.1023 18.113 72.6579 17.9279C72.2259 17.7304 71.689 17.6316 71.0471 17.6316C70.2448 17.6316 69.5659 17.8662 69.0104 18.3352C68.4673 18.8043 68.0538 19.3659 67.7698 20.0201C67.4859 20.6743 67.344 21.2854 67.344 21.8532V30ZM88.7847 30V27.1856C88.6859 27.4819 88.402 27.8892 87.933 28.4077C87.4763 28.9261 86.8467 29.3952 86.0444 29.8148C85.2544 30.2345 84.3163 30.4444 83.23 30.4444C81.8105 30.4444 80.5329 30.1049 79.3973 29.426C78.2617 28.7471 77.3668 27.8028 76.7126 26.5931C76.0583 25.3835 75.7312 23.9886 75.7312 22.4086C75.7312 20.8286 76.0583 19.4338 76.7126 18.2241C77.3668 17.0144 78.2617 16.0702 79.3973 15.3912C80.5329 14.7 81.8105 14.3544 83.23 14.3544C84.2916 14.3544 85.2112 14.5395 85.9888 14.9098C86.7665 15.2802 87.3898 15.706 87.8589 16.1874C88.3403 16.6688 88.6366 17.0885 88.7476 17.4465V14.7988H92.6729V30H88.7847ZM79.638 22.4086C79.638 23.3838 79.854 24.2355 80.2861 24.9638C80.7181 25.6921 81.2797 26.2537 81.971 26.6487C82.6746 27.0437 83.4275 27.2412 84.2299 27.2412C85.0939 27.2412 85.8592 27.0375 86.5258 26.6302C87.2047 26.2228 87.7355 25.6612 88.1181 24.9453C88.5131 24.217 88.7106 23.3714 88.7106 22.4086C88.7106 21.4458 88.5131 20.6065 88.1181 19.8905C87.7355 19.1622 87.2047 18.5944 86.5258 18.1871C85.8592 17.7674 85.0939 17.5576 84.2299 17.5576C83.4275 17.5576 82.6746 17.7612 81.971 18.1686C81.2797 18.5636 80.7181 19.1252 80.2861 19.8535C79.854 20.5818 79.638 21.4335 79.638 22.4086ZM95.2657 14.7988H99.5057L104.079 26.371L108.652 14.7988H112.874L106.412 30H101.765L95.2657 14.7988ZM118.418 23.3344C118.443 24.1367 118.634 24.8589 118.992 25.5007C119.35 26.1426 119.875 26.6487 120.566 27.019C121.27 27.377 122.127 27.556 123.14 27.556C124.016 27.556 124.769 27.4387 125.399 27.2042C126.04 26.9573 126.571 26.6672 126.991 26.3339C127.411 25.9883 127.719 25.6674 127.917 25.3711L129.676 27.7596C129.293 28.2781 128.812 28.7409 128.231 29.1483C127.651 29.5556 126.929 29.8704 126.065 30.0926C125.213 30.3271 124.158 30.4444 122.899 30.4444C121.245 30.4444 119.807 30.1049 118.585 29.426C117.363 28.7471 116.412 27.7905 115.733 26.5561C115.067 25.3217 114.734 23.8775 114.734 22.2235C114.734 20.7422 115.042 19.4091 115.659 18.2241C116.277 17.0268 117.171 16.0825 118.344 15.3912C119.529 14.7 120.949 14.3544 122.603 14.3544C124.146 14.3544 125.485 14.663 126.621 15.2802C127.756 15.8973 128.633 16.7861 129.25 17.9464C129.879 19.0944 130.194 20.483 130.194 22.1124C130.194 22.2111 130.188 22.4148 130.176 22.7234C130.176 23.032 130.163 23.2357 130.139 23.3344H118.418ZM126.491 20.446C126.479 20.051 126.343 19.6004 126.084 19.0944C125.837 18.5883 125.436 18.1501 124.88 17.7798C124.325 17.3971 123.584 17.2058 122.658 17.2058C121.708 17.2058 120.936 17.3909 120.344 17.7612C119.751 18.1192 119.313 18.5512 119.029 19.0573C118.745 19.5511 118.579 20.014 118.529 20.446H126.491ZM141.041 38.1283C139.881 38.1283 138.801 38.0111 137.801 37.7765C136.814 37.5543 135.931 37.2149 135.153 36.7582C134.376 36.3138 133.746 35.7645 133.265 35.1103L135.727 32.6662C135.987 32.9872 136.32 33.3205 136.727 33.6661C137.135 34.024 137.671 34.3203 138.338 34.5548C139.005 34.8017 139.85 34.9251 140.875 34.9251C141.874 34.9251 142.726 34.7215 143.43 34.3141C144.146 33.9068 144.689 33.3451 145.059 32.6292C145.442 31.9256 145.633 31.1109 145.633 30.1852V29.7223H149.521V30.4259C149.521 32.1046 149.145 33.5118 148.392 34.6474C147.639 35.7954 146.621 36.6594 145.337 37.2396C144.053 37.8321 142.621 38.1283 141.041 38.1283ZM145.633 30V27.1856C145.534 27.4819 145.25 27.8892 144.781 28.4077C144.325 28.9261 143.695 29.3952 142.893 29.8148C142.103 30.2345 141.165 30.4444 140.078 30.4444C138.659 30.4444 137.381 30.1049 136.246 29.426C135.11 28.7471 134.215 27.8028 133.561 26.5931C132.907 25.3835 132.58 23.9886 132.58 22.4086C132.58 20.8286 132.907 19.4338 133.561 18.2241C134.215 17.0144 135.11 16.0702 136.246 15.3912C137.381 14.7 138.659 14.3544 140.078 14.3544C141.14 14.3544 142.06 14.5395 142.837 14.9098C143.615 15.2802 144.238 15.706 144.707 16.1874C145.189 16.6688 145.485 17.0885 145.596 17.4465V14.7988H149.521V30H145.633ZM136.486 22.4086C136.486 23.3838 136.702 24.2355 137.135 24.9638C137.567 25.6921 138.128 26.2537 138.819 26.6487C139.523 27.0437 140.276 27.2412 141.078 27.2412C141.942 27.2412 142.708 27.0375 143.374 26.6302C144.053 26.2228 144.584 25.6612 144.967 24.9453C145.362 24.217 145.559 23.3714 145.559 22.4086C145.559 21.4458 145.362 20.6065 144.967 19.8905C144.584 19.1622 144.053 18.5944 143.374 18.1871C142.708 17.7674 141.942 17.5576 141.078 17.5576C140.276 17.5576 139.523 17.7612 138.819 18.1686C138.128 18.5636 137.567 19.1252 137.135 19.8535C136.702 20.5818 136.486 21.4335 136.486 22.4086ZM165.812 30V27.1856C165.713 27.4819 165.43 27.8892 164.96 28.4077C164.504 28.9261 163.874 29.3952 163.072 29.8148C162.282 30.2345 161.344 30.4444 160.258 30.4444C158.838 30.4444 157.56 30.1049 156.425 29.426C155.289 28.7471 154.394 27.8028 153.74 26.5931C153.086 25.3835 152.759 23.9886 152.759 22.4086C152.759 20.8286 153.086 19.4338 153.74 18.2241C154.394 17.0144 155.289 16.0702 156.425 15.3912C157.56 14.7 158.838 14.3544 160.258 14.3544C161.319 14.3544 162.239 14.5395 163.016 14.9098C163.794 15.2802 164.417 15.706 164.886 16.1874C165.368 16.6688 165.664 17.0885 165.775 17.4465V14.7988H169.7V30H165.812ZM156.665 22.4086C156.665 23.3838 156.882 24.2355 157.314 24.9638C157.746 25.6921 158.307 26.2537 158.998 26.6487C159.702 27.0437 160.455 27.2412 161.257 27.2412C162.121 27.2412 162.887 27.0375 163.553 26.6302C164.232 26.2228 164.763 25.6612 165.146 24.9453C165.541 24.217 165.738 23.3714 165.738 22.4086C165.738 21.4458 165.541 20.6065 165.146 19.8905C164.763 19.1622 164.232 18.5944 163.553 18.1871C162.887 17.7674 162.121 17.5576 161.257 17.5576C160.455 17.5576 159.702 17.7612 158.998 18.1686C158.307 18.5636 157.746 19.1252 157.314 19.8535C156.882 20.5818 156.665 21.4335 156.665 22.4086Z" fill="white"/>
<path d="M9.76074 31.1257V37.1319C9.76074 37.366 10.0111 37.5148 10.2167 37.403L34.8168 24.0267C35.0321 23.9097 35.0316 23.6005 34.816 23.4841L29.2528 20.4799C29.1609 20.4303 29.0502 20.4305 28.9585 20.4805L9.92167 30.8547C9.82247 30.9088 9.76074 31.0127 9.76074 31.1257Z" fill="url(#paint0_linear_1_6993)"/>
<path fill-rule="evenodd" clip-rule="evenodd" d="M0.455219 42.6756L6.04966 39.6546C6.14944 39.6007 6.21163 39.4965 6.21163 39.3831V28.5697C6.21163 28.4566 6.2735 28.3526 6.37288 28.2986L24.5216 18.4366C24.7373 18.3194 24.7365 18.0095 24.5201 17.8935L0.454411 4.99018C0.248834 4.87996 0 5.02888 0 5.26215V42.4041C0 42.6377 0.249615 42.7866 0.455219 42.6756ZM6.44002 21.8735L12.7017 18.4625C12.8101 18.4035 12.8087 18.2473 12.6992 18.1902L6.43751 14.9276C6.33479 14.874 6.21191 14.9486 6.21191 15.0644V21.738C6.21191 21.8551 6.3372 21.9295 6.44002 21.8735Z" fill="url(#paint1_linear_1_6993)"/>
<defs>
<linearGradient id="paint0_linear_1_6993" x1="7.32068" y1="18.9907" x2="15.4409" y2="40.8927" gradientUnits="userSpaceOnUse">
<stop offset="0.253276" stop-color="#F37335"/>
<stop offset="0.906966" stop-color="#FDBD04"/>
</linearGradient>
<linearGradient id="paint1_linear_1_6993" x1="-2.35666" y1="1.86747" x2="24.5013" y2="33.831" gradientUnits="userSpaceOnUse">
<stop offset="0.253276" stop-color="#F37335"/>
<stop offset="0.906966" stop-color="#FDBD04"/>
</linearGradient>
</defs>
</svg>
