<svg width="999" height="210" viewBox="0 0 999 210" fill="none" xmlns="http://www.w3.org/2000/svg">
<g clip-path="url(#clip0)">
<path d="M53.2112 127.549C53.8947 127.549 54.4073 127.549 55.0907 127.549V94.1557H65.5134L82.0871 121.18C87.213 119.287 93.0224 117.91 102.762 117.91C112.33 117.91 118.139 119.287 123.094 121.008L102.078 87.0984C109.084 83.1393 114.38 77.8033 118.139 71.0902C121.557 65.0656 123.265 58.0082 123.607 50.0902V121.18C131.467 123.934 137.447 127.549 152.312 127.549C156.071 127.549 159.317 127.377 162.051 126.861V10.6721L200.666 117.91C201.179 117.91 201.521 117.91 202.033 117.91C224.929 117.91 226.637 126.172 246.628 127.377L289.515 8.09016V118.77C292.762 118.254 296.521 117.91 301.305 117.91C326.08 117.91 326.08 127.549 350.855 127.549C375.63 127.549 375.63 117.91 400.405 117.91C413.904 117.91 420.055 120.836 426.718 123.418V94.1557H437.141L457.645 127.205C473.193 125.656 476.952 119.459 493.013 118.082L473.877 86.9262C480.882 82.9672 486.179 77.6311 489.938 70.918C493.697 64.2049 495.406 56.2869 495.406 47.3361V47.1639L516.593 119.803C526.674 122.73 531.97 127.377 549.398 127.377C552.986 127.377 556.062 127.205 558.796 126.861L579.129 58.5246L595.361 117.91C596.557 117.91 597.753 117.91 598.949 117.91C623.724 117.91 623.724 127.549 648.499 127.549C663.193 127.549 669.174 124.107 676.692 121.352L683.355 103.795H726.754L734.785 126.344C738.373 127.033 742.474 127.549 747.771 127.549C772.546 127.549 772.546 117.91 797.321 117.91C822.096 117.91 822.096 127.549 846.871 127.549C869.596 127.549 871.476 119.459 890.612 118.082V94.6721L899.326 84L926.835 124.623C931.62 126.172 937.258 127.377 946.143 127.377C958.103 127.377 964.255 125.139 970.235 122.73L924.614 55.082L969.893 0H928.031L890.442 45.6148V0H852.51V92.9508H805.864V0H767.42V108.959L723.85 0H685.918L644.911 103.795L674.983 0H638.418L617.402 72.4672L597.411 0H562.042L541.026 71.6066L521.035 0H481.395L487.204 19.7951C483.103 13.7705 477.636 9.12295 470.801 5.85246C462.942 2.06557 453.715 0.172131 443.292 0.172131H388.274V93.9836H327.447V77.459H375.801V46.8197H327.447V32.0164H382.465V0H292.762H289.686H255.001L227.15 73.5L199.47 0H162.222H158.121H123.607V45.0984C123.265 36.4918 121.215 28.918 117.285 22.377C113.013 15.1475 107.033 9.63934 99.1735 5.85246C91.3138 1.89344 82.258 0 71.6645 0H16.6465V118.943C29.6321 121.525 33.7328 127.549 53.2112 127.549ZM704.713 41.6557L715.819 73.3279H693.607L704.713 41.6557ZM426.548 32.7049H440.558C445.855 32.7049 449.785 33.9098 452.348 36.4918C454.911 39.0738 456.278 42.6885 456.278 47.3361C456.278 51.9836 454.911 55.5984 452.348 58.1803C449.785 60.7623 445.855 61.9672 440.558 61.9672H426.548V32.7049ZM55.0907 32.7049H69.1015C74.3983 32.7049 78.1573 33.9098 80.8911 36.4918C83.454 39.0738 84.821 42.6885 84.821 47.3361C84.821 51.9836 83.454 55.5984 80.8911 58.1803C78.3281 60.7623 74.3983 61.9672 69.1015 61.9672H55.0907V32.7049Z" fill="white"/>
<path d="M945.621 137.877C932.636 137.877 926.143 135.295 919.821 132.885C913.67 130.475 907.86 128.237 896.071 128.237C884.281 128.237 878.472 130.475 872.321 132.885C865.999 135.295 859.335 137.877 846.521 137.877C833.535 137.877 827.042 135.295 820.72 132.885C814.569 130.475 808.76 128.237 796.97 128.237C785.181 128.237 779.371 130.475 773.22 132.885C766.898 135.295 760.235 137.877 747.42 137.877C734.605 137.877 727.941 135.295 721.619 132.885C715.468 130.475 709.659 128.237 697.869 128.237C686.08 128.237 680.271 130.475 674.119 132.885C667.798 135.295 661.134 137.877 648.319 137.877C635.334 137.877 628.841 135.295 622.519 132.885C616.368 130.475 610.558 128.237 598.769 128.237C586.979 128.237 581.17 130.475 575.019 132.885C568.697 135.295 562.033 137.877 549.218 137.877C536.233 137.877 529.74 135.295 523.418 132.885C517.267 130.475 511.458 128.237 499.668 128.237C487.879 128.237 482.069 130.475 475.918 132.885C469.596 135.295 462.932 137.877 450.118 137.877C437.132 137.877 430.639 135.295 424.317 132.885C418.166 130.475 412.357 128.237 400.567 128.237C388.778 128.237 382.968 130.475 376.817 132.885C370.495 135.295 363.832 137.877 351.017 137.877C338.031 137.877 331.539 135.295 325.217 132.885C319.066 130.475 313.256 128.237 301.467 128.237C289.677 128.237 283.868 130.475 277.717 132.885C271.395 135.295 264.731 137.877 251.916 137.877C239.101 137.877 232.438 135.295 226.116 132.885C219.965 130.475 214.155 128.237 202.366 128.237C190.576 128.237 184.767 130.475 178.616 132.885C172.294 135.295 165.63 137.877 152.816 137.877C140.001 137.877 133.337 135.295 127.015 132.885C120.864 130.475 115.055 128.237 103.265 128.237C91.4756 128.237 85.6662 130.475 79.5152 132.885C73.1932 135.295 66.5295 137.877 53.7148 137.877C40.7292 137.877 34.2364 135.295 27.9144 132.885C21.7634 130.475 15.954 128.237 4.16444 128.237C2.62667 128.237 1.25977 126.86 1.25977 125.311C1.25977 123.762 2.11408 122.213 3.65185 122.213C16.6375 122.213 23.1303 124.795 29.4522 127.204C35.6033 129.614 41.4126 131.852 53.2022 131.852C64.9918 131.852 70.8011 129.614 76.9522 127.204C83.2742 124.795 89.9378 122.213 102.753 122.213C115.738 122.213 122.231 124.795 128.553 127.204C134.704 129.614 140.513 131.852 152.303 131.852C164.092 131.852 169.902 129.614 176.053 127.204C182.375 124.795 189.039 122.213 201.853 122.213C214.839 122.213 221.332 124.795 227.654 127.204C233.805 129.614 239.614 131.852 251.404 131.852C263.193 131.852 269.003 129.614 275.154 127.204C281.476 124.795 288.139 122.213 300.954 122.213C313.94 122.213 320.432 124.795 326.754 127.204C332.905 129.614 338.715 131.852 350.504 131.852C362.294 131.852 368.103 129.614 374.254 127.204C380.576 124.795 387.24 122.213 400.055 122.213C413.04 122.213 419.533 124.795 425.855 127.204C432.006 129.614 437.816 131.852 449.605 131.852C461.395 131.852 467.204 129.614 473.355 127.204C479.677 124.795 486.341 122.213 499.155 122.213C512.141 122.213 518.634 124.795 524.956 127.204C531.107 129.614 536.916 131.852 548.706 131.852C560.495 131.852 566.305 129.614 572.456 127.204C578.778 124.795 585.441 122.213 598.256 122.213C611.242 122.213 617.735 124.795 624.057 127.204C630.208 129.614 636.017 131.852 647.807 131.852C659.596 131.852 665.405 129.614 671.557 127.204C677.878 124.795 684.542 122.213 697.357 122.213C710.343 122.213 716.835 124.795 723.157 127.204C729.308 129.614 735.118 131.852 746.907 131.852C758.697 131.852 764.506 129.614 770.657 127.204C776.979 124.795 783.643 122.213 796.458 122.213C809.272 122.213 815.936 124.795 822.258 127.204C828.409 129.614 834.218 131.852 846.008 131.852C857.798 131.852 863.607 129.614 869.758 127.204C876.08 124.795 882.744 122.213 895.558 122.213C908.544 122.213 915.037 124.795 921.359 127.204C927.51 129.614 933.319 131.852 945.109 131.852C956.898 131.852 962.708 129.614 968.859 127.204C975.181 124.795 981.844 122.213 994.659 122.213C996.197 122.213 997.564 123.59 997.564 125.139C997.564 126.688 996.197 128.065 994.659 128.065C982.869 128.065 977.06 130.303 970.909 132.713C965.27 135.295 958.607 137.877 945.621 137.877Z" fill="white"/>
<path d="M945.624 148.721C932.638 148.721 926.146 146.139 919.824 143.729C913.673 141.319 907.863 139.081 896.074 139.081C884.284 139.081 878.475 141.319 872.324 143.729C866.002 146.139 859.338 148.721 846.523 148.721C833.538 148.721 827.045 146.139 820.723 143.729C814.572 141.319 808.763 139.081 796.973 139.081C785.183 139.081 779.374 141.319 773.223 143.729C766.901 146.139 760.237 148.721 747.423 148.721C734.608 148.721 727.944 146.139 721.622 143.729C715.471 141.319 709.662 139.081 697.872 139.081C686.083 139.081 680.273 141.319 674.122 143.729C667.8 146.139 661.137 148.721 648.322 148.721C635.336 148.721 628.844 146.139 622.522 143.729C616.37 141.319 610.561 139.081 598.772 139.081C586.982 139.081 581.173 141.319 575.022 143.729C568.7 146.139 562.036 148.721 549.221 148.721C536.236 148.721 529.743 146.139 523.421 143.729C517.27 141.319 511.46 139.081 499.671 139.081C487.881 139.081 482.072 141.319 475.921 143.729C469.599 146.139 462.935 148.721 450.12 148.721C437.135 148.721 430.642 146.139 424.32 143.729C418.169 141.319 412.36 139.081 400.57 139.081C388.781 139.081 382.971 141.319 376.82 143.729C370.498 146.139 363.835 148.721 351.02 148.721C338.034 148.721 331.541 146.139 325.219 143.729C319.068 141.319 313.259 139.081 301.469 139.081C289.68 139.081 283.871 141.319 277.719 143.729C271.397 146.139 264.734 148.721 251.919 148.721C239.104 148.721 232.441 146.139 226.119 143.729C219.968 141.319 214.158 139.081 202.369 139.081C190.579 139.081 184.77 141.319 178.619 143.729C172.297 146.139 165.633 148.721 152.818 148.721C140.004 148.721 133.34 146.139 127.018 143.729C120.867 141.319 115.058 139.081 103.268 139.081C91.4784 139.081 85.6691 141.319 79.518 143.729C73.196 146.139 66.5324 148.721 53.7176 148.721C40.732 148.721 34.2392 146.139 27.9173 143.729C21.7662 141.319 15.9568 139.081 4.16727 139.081C2.11691 138.909 0.75 137.704 0.75 135.983C0.75 134.262 2.11691 133.057 3.65468 133.057C16.6403 133.057 23.1331 135.639 29.455 138.049C35.6061 140.459 41.4155 142.696 53.205 142.696C64.9946 142.696 70.804 140.459 76.955 138.049C83.277 135.639 89.9406 133.057 102.755 133.057C115.741 133.057 122.234 135.639 128.556 138.049C134.707 140.459 140.516 142.696 152.306 142.696C164.095 142.696 169.905 140.459 176.056 138.049C182.378 135.639 189.041 133.057 201.856 133.057C214.842 133.057 221.335 135.639 227.656 138.049C233.808 140.459 239.617 142.696 251.406 142.696C263.196 142.696 269.005 140.459 275.156 138.049C281.478 135.639 288.142 133.057 300.957 133.057C313.942 133.057 320.435 135.639 326.757 138.049C332.908 140.459 338.718 142.696 350.507 142.696C362.297 142.696 368.106 140.459 374.257 138.049C380.579 135.639 387.243 133.057 400.058 133.057C413.043 133.057 419.536 135.639 425.858 138.049C432.009 140.459 437.818 142.696 449.608 142.696C461.397 142.696 467.207 140.459 473.358 138.049C479.68 135.639 486.344 133.057 499.158 133.057C512.144 133.057 518.637 135.639 524.959 138.049C531.11 140.459 536.919 142.696 548.709 142.696C560.498 142.696 566.308 140.459 572.459 138.049C578.781 135.639 585.444 133.057 598.259 133.057C611.245 133.057 617.737 135.639 624.059 138.049C630.21 140.459 636.02 142.696 647.809 142.696C659.599 142.696 665.408 140.459 671.559 138.049C677.881 135.639 684.545 133.057 697.36 133.057C710.345 133.057 716.838 135.639 723.16 138.049C729.311 140.459 735.121 142.696 746.91 142.696C758.7 142.696 764.509 140.459 770.66 138.049C776.982 135.639 783.646 133.057 796.46 133.057C809.275 133.057 815.939 135.639 822.261 138.049C828.412 140.459 834.221 142.696 846.011 142.696C857.8 142.696 863.61 140.459 869.761 138.049C876.083 135.639 882.746 133.057 895.561 133.057C908.547 133.057 915.04 135.639 921.361 138.049C927.513 140.459 933.322 142.696 945.112 142.696C956.901 142.696 962.71 140.459 968.861 138.049C975.183 135.639 981.847 133.057 994.662 133.057C996.2 133.057 997.567 134.434 997.567 135.983C997.567 137.532 996.2 138.909 994.662 138.909C982.872 138.909 977.063 141.147 970.912 143.557C965.273 146.139 958.61 148.721 945.624 148.721Z" fill="white"/>
<path d="M945.624 159.566C932.638 159.566 926.146 156.984 919.824 154.574C913.673 152.164 907.863 149.926 896.074 149.926C884.284 149.926 878.475 152.164 872.324 154.574C866.002 156.984 859.338 159.566 846.523 159.566C833.538 159.566 827.045 156.984 820.723 154.574C814.572 152.164 808.763 149.926 796.973 149.926C785.183 149.926 779.374 152.164 773.223 154.574C766.901 156.984 760.237 159.566 747.423 159.566C734.608 159.566 727.944 156.984 721.622 154.574C715.471 152.164 709.662 149.926 697.872 149.926C686.083 149.926 680.273 152.164 674.122 154.574C667.8 156.984 661.137 159.566 648.322 159.566C635.336 159.566 628.844 156.984 622.522 154.574C616.37 152.164 610.561 149.926 598.772 149.926C586.982 149.926 581.173 152.164 575.022 154.574C568.7 156.984 562.036 159.566 549.221 159.566C536.236 159.566 529.743 156.984 523.421 154.574C517.27 152.164 511.46 149.926 499.671 149.926C487.881 149.926 482.072 152.164 475.921 154.574C469.599 156.984 462.935 159.566 450.12 159.566C437.135 159.566 430.642 156.984 424.32 154.574C418.169 152.164 412.36 149.926 400.57 149.926C388.781 149.926 382.971 152.164 376.82 154.574C370.498 156.984 363.835 159.566 351.02 159.566C338.034 159.566 331.541 156.984 325.219 154.574C319.068 152.164 313.259 149.926 301.469 149.926C289.68 149.926 283.871 152.164 277.719 154.574C271.397 156.984 264.734 159.566 251.919 159.566C239.104 159.566 232.441 156.984 226.119 154.574C219.968 152.164 214.158 149.926 202.369 149.926C190.579 149.926 184.77 152.164 178.619 154.574C172.297 156.984 165.633 159.566 152.818 159.566C140.004 159.566 133.34 156.984 127.018 154.574C120.867 152.164 115.058 149.926 103.268 149.926C91.4784 149.926 85.6691 152.164 79.518 154.574C73.196 156.984 66.5324 159.566 53.7176 159.566C40.732 159.566 34.2392 156.984 27.9173 154.574C21.2536 152.164 15.4442 149.754 3.65468 149.754C2.11691 149.754 0.75 148.549 0.75 146.828C0.75 145.107 2.11691 143.902 3.65468 143.902C16.6403 143.902 23.1331 146.484 29.455 148.894C35.6061 151.303 41.4155 153.541 53.205 153.541C64.9946 153.541 70.804 151.303 76.955 148.894C83.277 146.484 89.9406 143.902 102.755 143.902C115.741 143.902 122.234 146.484 128.556 148.894C134.707 151.303 140.516 153.541 152.306 153.541C164.095 153.541 169.905 151.303 176.056 148.894C182.378 146.484 189.041 143.902 201.856 143.902C214.842 143.902 221.335 146.484 227.656 148.894C233.808 151.303 239.617 153.541 251.406 153.541C263.196 153.541 269.005 151.303 275.156 148.894C281.478 146.484 288.142 143.902 300.957 143.902C313.942 143.902 320.435 146.484 326.757 148.894C332.908 151.303 338.718 153.541 350.507 153.541C362.297 153.541 368.106 151.303 374.257 148.894C380.579 146.484 387.243 143.902 400.058 143.902C413.043 143.902 419.536 146.484 425.858 148.894C432.009 151.303 437.818 153.541 449.608 153.541C461.397 153.541 467.207 151.303 473.358 148.894C479.68 146.484 486.344 143.902 499.158 143.902C512.144 143.902 518.637 146.484 524.959 148.894C531.11 151.303 536.919 153.541 548.709 153.541C560.498 153.541 566.308 151.303 572.459 148.894C578.781 146.484 585.444 143.902 598.259 143.902C611.245 143.902 617.737 146.484 624.059 148.894C630.21 151.303 636.02 153.541 647.809 153.541C659.599 153.541 665.408 151.303 671.559 148.894C677.881 146.484 684.545 143.902 697.36 143.902C710.345 143.902 716.838 146.484 723.16 148.894C729.311 151.303 735.121 153.541 746.91 153.541C758.7 153.541 764.509 151.303 770.66 148.894C776.982 146.484 783.646 143.902 796.46 143.902C809.275 143.902 815.939 146.484 822.261 148.894C828.412 151.303 834.221 153.541 846.011 153.541C857.8 153.541 863.61 151.303 869.761 148.894C876.083 146.484 882.746 143.902 895.561 143.902C908.547 143.902 915.04 146.484 921.361 148.894C927.513 151.303 933.322 153.541 945.112 153.541C956.901 153.541 962.71 151.303 968.861 148.894C975.183 146.484 981.847 143.902 994.662 143.902C996.2 143.902 997.567 145.279 997.567 146.828C997.567 148.377 996.883 149.754 995.345 149.754C983.556 149.754 977.746 151.992 971.595 154.402C965.273 156.984 958.61 159.566 945.624 159.566Z" fill="white"/>
<path d="M316.502 177.984V209.656H312.06V195.541H293.948V209.656H289.506V177.984H293.948V191.582H312.06V177.984H316.502Z" fill="white"/>
<path d="M355.799 207.934C353.236 206.557 351.186 204.664 349.819 202.082C348.452 199.672 347.598 196.918 347.598 193.82C347.598 190.721 348.281 187.967 349.819 185.557C351.357 183.148 353.236 181.082 355.799 179.705C358.362 178.328 361.267 177.639 364.342 177.639C367.418 177.639 370.322 178.328 372.885 179.705C375.448 181.082 377.499 182.975 378.866 185.557C380.232 187.967 381.087 190.721 381.087 193.82C381.087 196.918 380.403 199.672 378.866 202.082C377.499 204.492 375.448 206.557 372.885 207.934C370.322 209.312 367.418 210 364.342 210C361.096 210 358.362 209.312 355.799 207.934ZM370.493 204.32C372.373 203.287 373.74 201.738 374.765 200.016C375.79 198.123 376.303 196.057 376.303 193.82C376.303 191.582 375.79 189.516 374.765 187.623C373.74 185.73 372.202 184.353 370.493 183.32C368.614 182.287 366.563 181.771 364.342 181.771C362.121 181.771 359.9 182.287 358.02 183.32C356.141 184.353 354.603 185.902 353.578 187.623C352.553 189.516 352.04 191.582 352.04 193.82C352.04 196.057 352.553 198.123 353.578 200.016C354.603 201.91 356.141 203.287 358.02 204.32C359.9 205.353 361.95 205.869 364.342 205.869C366.563 206.041 368.785 205.525 370.493 204.32Z" fill="white"/>
<path d="M412.182 177.984H416.624V205.697H433.71V209.656H412.182V177.984Z" fill="white"/>
<path d="M463.107 177.984H476.435C479.681 177.984 482.757 178.672 485.32 180.049C487.883 181.426 489.933 183.32 491.3 185.557C492.667 187.967 493.35 190.721 493.35 193.82C493.35 196.918 492.667 199.672 491.3 202.082C489.933 204.492 487.883 206.385 485.32 207.59C482.757 208.967 479.852 209.656 476.435 209.656H463.107V177.984ZM476.093 205.697C478.656 205.697 480.877 205.18 482.757 204.148C484.636 203.115 486.174 201.738 487.199 200.016C488.224 198.295 488.737 196.23 488.737 193.82C488.737 191.41 488.224 189.344 487.199 187.623C486.174 185.902 484.636 184.352 482.757 183.492C480.877 182.459 478.656 181.943 476.093 181.943H467.55V205.697H476.093V205.697Z" fill="white"/>
<path d="M524.441 177.984H528.884V209.656H524.441V177.984Z" fill="white"/>
<path d="M589.717 177.984V209.656H585.958L567.163 186.074V209.656H562.721V177.984H566.48L585.275 201.566V177.984H589.717Z" fill="white"/>
<path d="M645.074 193.648H649.346V206.041C647.808 207.418 645.928 208.279 643.878 208.967C641.828 209.656 639.606 210 637.385 210C634.139 210 631.405 209.312 628.842 207.934C626.279 206.557 624.229 204.664 622.862 202.082C621.324 199.672 620.641 196.918 620.641 193.82C620.641 190.721 621.324 187.967 622.862 185.557C624.4 183.148 626.279 181.082 628.842 179.705C631.405 178.328 634.31 177.639 637.556 177.639C640.119 177.639 642.34 177.984 644.391 178.844C646.441 179.705 648.15 180.91 649.687 182.459L646.954 185.213C644.391 182.803 641.315 181.598 637.898 181.598C635.506 181.598 633.285 182.115 631.405 183.148C629.526 184.18 627.988 185.557 626.963 187.451C625.937 189.344 625.425 191.41 625.425 193.648C625.425 195.885 625.937 197.951 626.963 199.844C627.988 201.738 629.526 203.115 631.405 204.148C633.285 205.18 635.506 205.697 637.727 205.697C640.461 205.697 643.024 205.008 645.074 203.631V193.648Z" fill="white"/>
<path d="M684.54 208.968C682.319 208.279 680.61 207.246 679.414 206.041L681.123 202.427C682.319 203.459 683.856 204.32 685.736 205.009C687.616 205.697 689.495 206.041 691.545 206.041C694.108 206.041 696.159 205.525 697.355 204.664C698.722 203.804 699.234 202.599 699.234 201.05C699.234 200.017 698.893 199.156 698.209 198.468C697.526 197.779 696.671 197.263 695.646 196.918C694.621 196.574 693.083 196.23 691.204 195.713C688.812 195.197 686.932 194.509 685.394 193.992C684.027 193.476 682.66 192.615 681.635 191.41C680.61 190.205 680.098 188.656 680.098 186.59C680.098 184.869 680.61 183.32 681.464 181.943C682.319 180.566 683.686 179.533 685.565 178.672C687.445 177.812 689.666 177.468 692.229 177.468C694.108 177.468 695.988 177.64 697.696 178.156C699.576 178.672 701.114 179.361 702.31 180.222L700.772 183.836C699.405 182.976 698.038 182.287 696.5 181.943C694.963 181.427 693.596 181.254 692.058 181.254C689.495 181.254 687.616 181.771 686.249 182.631C685.053 183.492 684.369 184.697 684.369 186.246C684.369 187.279 684.711 188.14 685.394 188.828C686.078 189.517 686.932 190.033 688.128 190.377C689.153 190.722 690.691 191.238 692.4 191.582C694.792 192.099 696.671 192.787 698.038 193.304C699.405 193.82 700.772 194.681 701.797 195.886C702.822 197.09 703.335 198.64 703.335 200.705C703.335 202.427 702.822 203.804 701.968 205.181C701.114 206.558 699.747 207.59 697.867 208.451C695.988 209.312 693.767 209.656 691.204 209.656C689.153 210 686.761 209.656 684.54 208.968Z" fill="white"/>
</g>
<defs>
<clipPath id="clip0">
<rect width="997.5" height="210" fill="white" transform="translate(0.75)"/>
</clipPath>
</defs>
</svg>
